<?xml version="1.0" encoding="UTF-8" standalone="no"?>
<!-- Created with Inkscape (http://www.inkscape.org/) -->

<svg
   width="43.162109mm"
   height="41.207027mm"
   viewBox="0 0 43.162109 41.207027"
   version="1.1"
   id="svg5"
   inkscape:version="1.1.2 (0a00cf5339, 2022-02-04)"
   sodipodi:docname="bobine.svg"
   xmlns:inkscape="http://www.inkscape.org/namespaces/inkscape"
   xmlns:sodipodi="http://sodipodi.sourceforge.net/DTD/sodipodi-0.dtd"
   xmlns="http://www.w3.org/2000/svg"
   xmlns:svg="http://www.w3.org/2000/svg">
  <sodipodi:namedview
     id="namedview7"
     pagecolor="#ffffff"
     bordercolor="#666666"
     borderopacity="1.0"
     inkscape:pageshadow="2"
     inkscape:pageopacity="0.0"
     inkscape:pagecheckerboard="0"
     inkscape:document-units="mm"
     showgrid="false"
     inkscape:zoom="1.7992465"
     inkscape:cx="68.084058"
     inkscape:cy="26.399941"
     inkscape:window-width="1850"
     inkscape:window-height="1016"
     inkscape:window-x="70"
     inkscape:window-y="27"
     inkscape:window-maximized="1"
     inkscape:current-layer="layer1"
     fit-margin-top="0"
     fit-margin-left="0"
     fit-margin-right="0"
     fit-margin-bottom="0" />
  <defs
     id="defs2" />
  <g
     inkscape:label="brouillon"
     inkscape:groupmode="layer"
     id="layer1"
     transform="translate(-101.97656,-76.300781)">
    <path
       style="color:#000000;fill:#ffb94d;fill-opacity:1;stroke:#000000;stroke-linejoin:round;stroke-opacity:1;-inkscape-stroke:none"
       d="m 117.20898,110.07813 c 1.67063,0 3.26588,-0.72801 4.39063,-1.8086 1.12475,-1.08059 1.87224,-2.44403 2.4375,-3.95898 1.13051,-3.02991 1.55273,-6.779387 1.55273,-10.871097 0,-4.430542 -1.37329,-8.41605 -3.41796,-11.408203 -2.04468,-2.992153 -4.79742,-5.230469 -8.13868,-5.230469 -3.34125,0 -6.09399,2.238315 -8.13867,5.230469 -2.04467,2.992154 -3.41797,6.977662 -3.41797,11.408203 v 23.568357 h 5 V 93.439453 c 0,-3.378011 1.09475,-6.462861 2.54688,-8.587891 1.45213,-2.125029 3.22629,-3.050781 4.00976,-3.050781 0.78348,0 2.55764,0.925751 4.00977,3.050781 1.45213,2.125031 2.54687,5.209881 2.54687,8.587891 0,3.716853 -0.45753,7.035767 -1.23632,9.123047 -0.3894,1.04364 -0.85413,1.75125 -1.21875,2.10156 -0.36463,0.35032 -0.53405,0.41407 -0.92579,0.41407"
       id="path879-87"
       sodipodi:nodetypes="csssssssccsssssssc" />
    <path
       style="color:#000000;fill:none;fill-opacity:1;stroke:none;stroke-linejoin:round;stroke-opacity:1;-inkscape-stroke:none"
       d="m 114.0332,76.800781 c -3.34125,0 -6.09399,2.238315 -8.13867,5.230469 -2.04467,2.992154 -3.41797,6.977662 -3.41797,11.408203 v 23.568357 h 5 V 93.439453 c 0,-3.378011 1.09475,-6.462861 2.54688,-8.587891 1.45213,-2.125029 3.22629,-3.050781 4.00976,-3.050781 0.78348,0 2.55764,0.925751 4.00977,3.050781 1.45213,2.125031 2.54687,5.209881 2.54687,8.587891 0,3.716853 -0.45753,7.035767 -1.23632,9.123047 -0.3894,1.04364 -0.85413,1.75125 -1.21875,2.10156 -0.36463,0.35032 -0.53405,0.41407 -0.92579,0.41407 v 5 c 1.67063,0 3.26588,-0.72801 4.39063,-1.8086 1.12475,-1.08059 1.87224,-2.44403 2.4375,-3.95898 1.13051,-3.02991 1.55273,-6.779387 1.55273,-10.871097 0,-4.430542 -1.37329,-8.41605 -3.41796,-11.408203 -2.04468,-2.992153 -4.79742,-5.230469 -8.13868,-5.230469 z"
       id="path879-87-8" />
    <path
       style="color:#000000;fill:#ffb94d;fill-opacity:1;stroke:none;stroke-linejoin:round;stroke-opacity:1;-inkscape-stroke:none"
       d="m 118.79492,76.800781 c -3.34125,0 -6.094,2.238317 -8.13867,5.230469 -2.04467,2.992152 -3.41602,6.977662 -3.41602,11.408203 0,4.261123 0.87975,8.141097 2.47657,11.164067 1.59682,3.02296 4.15093,5.47461 7.49218,5.47461 v -5 c -0.78347,0 -1.96407,-0.71632 -3.07031,-2.81055 -1.10623,-2.09423 -1.89844,-5.280697 -1.89844,-8.828127 0,-3.378011 1.0928,-6.462862 2.54493,-8.587891 1.45213,-2.125028 3.22629,-3.050781 4.00976,-3.050781 0.78348,0 2.55959,0.925753 4.01172,3.050781 1.45213,2.125029 2.54492,5.209881 2.54492,8.587891 0,3.716848 -0.45753,7.035767 -1.23633,9.123047 -0.3894,1.04364 -0.85216,1.75125 -1.21679,2.10156 -0.36463,0.35032 -0.536,0.41406 -0.92774,0.41407 v 5 c 1.67063,-1e-5 3.26588,-0.728 4.39063,-1.8086 1.12475,-1.08059 1.8742,-2.44403 2.43945,-3.95898 1.13051,-3.02991 1.55078,-6.779392 1.55078,-10.871097 0,-4.430542 -1.37134,-8.416051 -3.41601,-11.408203 -2.04468,-2.992152 -4.79938,-5.230469 -8.14063,-5.230469 z"
       id="path879-6-9" />
    <path
       style="color:#000000;fill:none;fill-opacity:1;stroke:#000000;stroke-linejoin:round;stroke-opacity:1;-inkscape-stroke:none"
       d="m 117.20898,105.07813 c -0.78347,0 -1.96407,-0.71632 -3.07031,-2.81055 -1.10623,-2.09423 -1.89844,-5.280697 -1.89844,-8.828127 0,-3.378011 1.0928,-6.462862 2.54493,-8.587891 1.45213,-2.125028 3.22629,-3.050781 4.00976,-3.050781 0.78348,0 2.55959,0.925753 4.01172,3.050781 1.45213,2.125029 2.54492,5.209881 2.54492,8.587891 0,3.716848 -0.45753,7.035767 -1.23633,9.123047 -0.3894,1.04364 -0.85216,1.75125 -1.21679,2.10156 -0.36463,0.35032 -0.536,0.41406 -0.92774,0.41407 m 0,5 c 1.67063,-1e-5 3.26588,-0.728 4.39063,-1.8086 1.12475,-1.08059 1.8742,-2.44403 2.43945,-3.95898 1.13051,-3.02991 1.55078,-6.779392 1.55078,-10.871097 0,-4.430542 -1.37134,-8.416051 -3.41601,-11.408203 -2.04468,-2.992152 -4.79938,-5.230469 -8.14063,-5.230469 -3.34125,0 -6.094,2.238317 -8.13867,5.230469 -2.04467,2.992152 -3.41602,6.977662 -3.41602,11.408203 0,4.261123 0.87975,8.141097 2.47657,11.164067 1.59682,3.02296 4.15093,5.47461 7.49218,5.47461"
       id="path879-6-9-5"
       sodipodi:nodetypes="cssssssssccssssssssc" />
    <path
       style="color:#000000;fill:none;fill-opacity:1;stroke:none;stroke-linejoin:round;stroke-opacity:1;-inkscape-stroke:none"
       d="m 117.20898,105.07813 c -0.78347,0 -1.96407,-0.71632 -3.07031,-2.81055 -1.10623,-2.09423 -1.89844,-5.280697 -1.89844,-8.828127 0,-3.378011 1.0928,-6.462862 2.54493,-8.587891 1.45213,-2.125028 3.22629,-3.050781 4.00976,-3.050781 0.78348,0 2.55959,0.925753 4.01172,3.050781 1.45213,2.125029 2.54492,5.209881 2.54492,8.587891 0,3.716848 -0.45753,7.035767 -1.23633,9.123047 -0.3894,1.04364 -0.85216,1.75125 -1.21679,2.10156 -0.36463,0.35032 -0.536,0.41406 -0.92774,0.41407 m 0,5 c 1.67063,-1e-5 3.26588,-0.728 4.39063,-1.8086 1.12475,-1.08059 1.8742,-2.44403 2.43945,-3.95898 1.13051,-3.02991 1.55078,-6.779392 1.55078,-10.871097 0,-4.430542 -1.37134,-8.416051 -3.41601,-11.408203 -2.04468,-2.992152 -4.79938,-5.230469 -8.14063,-5.230469 -3.34125,0 -6.094,2.238317 -8.13867,5.230469 -2.04467,2.992152 -3.41602,6.977662 -3.41602,11.408203 0,4.261123 0.87975,8.141097 2.47657,11.164067 1.59682,3.02296 4.15093,5.47461 7.49218,5.47461"
       id="path879-6-9-6"
       sodipodi:nodetypes="cssssssssccssssssssc" />
    <path
       style="color:#000000;fill:none;fill-opacity:1;stroke:none;stroke-linejoin:round;stroke-opacity:1;-inkscape-stroke:none"
       d="m 118.79492,76.800781 c -3.34125,0 -6.094,2.238317 -8.13867,5.230469 -2.04467,2.992152 -3.41602,6.977662 -3.41602,11.408203 0,4.261123 0.87975,8.141097 2.47657,11.164067 1.59682,3.02296 4.15093,5.47461 7.49218,5.47461 v -5 c -0.78347,0 -1.96407,-0.71632 -3.07031,-2.81055 -1.10623,-2.09423 -1.89844,-5.280697 -1.89844,-8.828127 0,-3.378011 1.0928,-6.462862 2.54493,-8.587891 1.45213,-2.125028 3.22629,-3.050781 4.00976,-3.050781 0.78348,0 2.55959,0.925753 4.01172,3.050781 1.45213,2.125029 2.54492,5.209881 2.54492,8.587891 0,3.716848 -0.45753,7.035767 -1.23633,9.123047 -0.3894,1.04364 -0.85216,1.75125 -1.21679,2.10156 -0.36463,0.35032 -0.536,0.41406 -0.92774,0.41407 v 5 c 1.67063,-1e-5 3.26588,-0.728 4.39063,-1.8086 1.12475,-1.08059 1.8742,-2.44403 2.43945,-3.95898 1.13051,-3.02991 1.55078,-6.779392 1.55078,-10.871097 0,-4.430542 -1.37134,-8.416051 -3.41601,-11.408203 -2.04468,-2.992152 -4.79938,-5.230469 -8.14063,-5.230469 z"
       id="path879-6-9-2" />
    <path
       style="color:#000000;fill:#ffb94d;fill-opacity:1;stroke:none;stroke-linejoin:round;stroke-opacity:1;-inkscape-stroke:none"
       d="m 123.55859,76.800781 c -3.34125,0 -6.09399,2.238315 -8.13867,5.230469 -2.04467,2.992154 -3.41797,6.977658 -3.41797,11.408203 0,4.261123 0.87974,8.141107 2.47657,11.164067 1.59682,3.02295 4.15093,5.47461 7.49218,5.47461 v -5 c -0.78347,0 -1.96408,-0.71633 -3.07031,-2.81055 -1.10623,-2.09422 -1.89844,-5.280697 -1.89844,-8.828127 0,-3.378017 1.0928,-6.462861 2.54493,-8.587891 1.45212,-2.125029 3.22824,-3.050781 4.01171,-3.050781 0.78348,0 2.55764,0.925753 4.00977,3.050781 1.45213,2.125029 2.54492,5.209881 2.54492,8.587891 0,3.716848 -0.45557,7.035777 -1.23437,9.123047 -0.3894,1.04364 -0.85412,1.75125 -1.21875,2.10156 -0.36463,0.35032 -0.536,0.41406 -0.92774,0.41407 v 5 c 1.67063,0 3.26783,-0.72801 4.39258,-1.8086 1.12475,-1.08059 1.87224,-2.44403 2.4375,-3.95898 1.13051,-3.02991 1.55078,-6.779392 1.55078,-10.871097 0,-4.430542 -1.37134,-8.416051 -3.41601,-11.408203 -2.04468,-2.992152 -4.79742,-5.230469 -8.13868,-5.230469 z"
       id="path879-8-0" />
    <path
       style="color:#000000;fill:none;fill-opacity:1;stroke:#000000;stroke-linejoin:round;stroke-opacity:1;-inkscape-stroke:none"
       d="m 126.73242,110.07813 c 1.67063,0 3.26783,-0.72801 4.39258,-1.8086 1.12475,-1.08059 1.87224,-2.44403 2.4375,-3.95898 1.13051,-3.02991 1.55078,-6.779392 1.55078,-10.871097 0,-4.430542 -1.37134,-8.416051 -3.41601,-11.408203 -2.04468,-2.992152 -4.79742,-5.230469 -8.13868,-5.230469 -3.34125,0 -6.09399,2.238315 -8.13867,5.230469 -2.04467,2.992154 -3.41797,6.977658 -3.41797,11.408203 0,4.261123 0.87974,8.141107 2.47657,11.164067 1.59682,3.02295 4.15093,5.47461 7.49218,5.47461 m 0,-5 c -0.78347,0 -1.96408,-0.71633 -3.07031,-2.81055 -1.10623,-2.09422 -1.89844,-5.280697 -1.89844,-8.828127 0,-3.378017 1.0928,-6.462861 2.54493,-8.587891 1.45212,-2.125029 3.22824,-3.050781 4.01171,-3.050781 0.78348,0 2.55764,0.925753 4.00977,3.050781 1.45213,2.125029 2.54492,5.209881 2.54492,8.587891 0,3.716848 -0.45557,7.035777 -1.23437,9.123047 -0.3894,1.04364 -0.85412,1.75125 -1.21875,2.10156 -0.36463,0.35032 -0.536,0.41406 -0.92774,0.41407"
       id="path879-8-0-3"
       sodipodi:nodetypes="cssssssssccssssssssc" />
    <path
       style="color:#000000;fill:#ffb94d;fill-opacity:1;stroke:none;stroke-linejoin:round;stroke-opacity:1;-inkscape-stroke:none"
       d="m 131.49609,110.07813 c 1.67063,0 3.26588,-0.728 4.39063,-1.8086 1.12475,-1.08059 1.8742,-2.44403 2.43945,-3.95898 1.13051,-3.02991 1.55078,-6.779382 1.55078,-10.871097 0,-4.430542 -1.37329,-8.416052 -3.41797,-11.408203 -2.04467,-2.992151 -4.79742,-5.230469 -8.13867,-5.230469 -3.34125,0 -6.09399,2.238317 -8.13867,5.230469 -2.04467,2.992152 -3.41601,6.977662 -3.41601,11.408203 0,4.261132 0.87974,8.141097 2.47656,11.164067 1.59682,3.02296 4.14898,5.47461 7.49023,5.47461 v -5 c -0.78347,0 -1.96408,-0.71633 -3.07031,-2.81055 -1.10623,-2.09423 -1.89648,-5.280686 -1.89648,-8.828127 0,-3.378011 1.09279,-6.462863 2.54492,-8.587891 1.45213,-2.125027 3.22629,-3.050781 4.00976,-3.050781 0.78348,0 2.55959,0.925754 4.01172,3.050781 1.45213,2.125028 2.54492,5.209881 2.54492,8.587891 0,3.716858 -0.45753,7.035767 -1.23633,9.123047 -0.38939,1.04364 -0.85412,1.75125 -1.21875,2.10156 -0.36462,0.35032 -0.53404,0.41406 -0.92578,0.41407"
       id="path879-9-3"
       sodipodi:nodetypes="cssssssssccssssssssc" />
    <path
       style="color:#000000;fill:none;fill-opacity:1;stroke:#000000;stroke-linejoin:round;stroke-opacity:1;-inkscape-stroke:none"
       d="m 131.49609,110.07813 c 1.67063,0 3.26588,-0.728 4.39063,-1.8086 1.12475,-1.08059 1.8742,-2.44403 2.43945,-3.95898 1.13051,-3.02991 1.55078,-6.779382 1.55078,-10.871097 0,-4.430542 -1.37329,-8.416052 -3.41797,-11.408203 -2.04467,-2.992151 -4.79742,-5.230469 -8.13867,-5.230469 -3.34125,0 -6.09399,2.238317 -8.13867,5.230469 -2.04467,2.992152 -3.41601,6.977662 -3.41601,11.408203 0,4.261132 0.87974,8.141097 2.47656,11.164067 1.59682,3.02296 4.14898,5.47461 7.49023,5.47461 m 0,-5 c -0.78347,0 -1.96408,-0.71633 -3.07031,-2.81055 -1.10623,-2.09423 -1.89648,-5.280686 -1.89648,-8.828127 0,-3.378011 1.09279,-6.462863 2.54492,-8.587891 1.45213,-2.125027 3.22629,-3.050781 4.00976,-3.050781 0.78348,0 2.55959,0.925754 4.01172,3.050781 1.45213,2.125028 2.54492,5.209881 2.54492,8.587891 0,3.716858 -0.45753,7.035767 -1.23633,9.123047 -0.38939,1.04364 -0.85412,1.75125 -1.21875,2.10156 -0.36462,0.35032 -0.53404,0.41406 -0.92578,0.41407"
       id="path879-9-3-7"
       sodipodi:nodetypes="cssssssssccssssssssc" />
    <path
       style="color:#000000;fill:#ffb94d;fill-opacity:1;stroke:#000000;stroke-linejoin:round;stroke-opacity:1;-inkscape-stroke:none"
       d="m 131.49609,105.07813 c -0.78347,0 -1.96408,-0.71633 -3.07031,-2.81055 -1.10623,-2.09422 -1.89844,-5.280697 -1.89844,-8.828127 0,-3.378011 1.0928,-6.462859 2.54493,-8.587891 1.45213,-2.125031 3.22824,-3.050781 4.01171,-3.050781 0.78348,0 2.55764,0.925753 4.00977,3.050781 1.45213,2.125029 2.54492,5.209881 2.54492,8.587891 v 23.568357 h 5 V 93.439453 c 0,-4.430542 -1.37134,-8.416051 -3.41601,-11.408203 -2.04468,-2.992152 -4.79742,-5.230469 -8.13868,-5.230469 -3.34125,0 -6.09399,2.238314 -8.13867,5.230469 -2.04467,2.992155 -3.41797,6.977662 -3.41797,11.408203 0,4.261123 0.87975,8.141107 2.47657,11.164067 1.59682,3.02295 4.15093,5.47461 7.49218,5.47461"
       id="path879-0-3"
       sodipodi:nodetypes="cssssssccssssssc" />
    <path
       style="color:#000000;fill:none;fill-opacity:1;stroke:none;stroke-linejoin:round;stroke-opacity:1;-inkscape-stroke:none"
       d="m 131.49609,105.07813 c -0.78347,0 -1.96408,-0.71633 -3.07031,-2.81055 -1.10623,-2.09422 -1.89844,-5.280697 -1.89844,-8.828127 0,-3.378011 1.0928,-6.462859 2.54493,-8.587891 1.45213,-2.125031 3.22824,-3.050781 4.01171,-3.050781 0.78348,0 2.55764,0.925753 4.00977,3.050781 1.45213,2.125029 2.54492,5.209881 2.54492,8.587891 v 22.636717 h 5 V 93.439453 c 0,-4.430542 -1.37134,-8.416051 -3.41601,-11.408203 -2.04468,-2.992152 -4.79742,-5.230469 -8.13868,-5.230469 -3.34125,0 -6.09399,2.238314 -8.13867,5.230469 -2.04467,2.992155 -3.41797,6.977662 -3.41797,11.408203 0,4.261123 0.87975,8.141107 2.47657,11.164067 1.59682,3.02295 4.15093,5.47461 7.49218,5.47461"
       id="path879-0-3-3"
       sodipodi:nodetypes="cssssssccssssssc" />
  </g>
</svg>
